<?xml version="1.0" standalone="no"?>
<!DOCTYPE svg PUBLIC "-//W3C//DTD SVG 20010904//EN"
 "http://www.w3.org/TR/2001/REC-SVG-20010904/DTD/svg10.dtd">
<svg version="1.0" xmlns="http://www.w3.org/2000/svg"
 width="912.000000pt" height="912.000000pt" viewBox="0 0 912.000000 912.000000"
 preserveAspectRatio="xMidYMid meet">
<metadata>
Created by potrace 1.14, written by Peter Selinger 2001-2017
</metadata>
<g transform="translate(0.000000,912.000000) scale(0.100000,-0.100000)"
fill="#000000" stroke="none">
<path d="M4942 7912 c-18 -2 -30 -7 -27 -11 2 -5 -7 -7 -20 -5 -14 1 -25 -2
-25 -7 0 -6 -5 -7 -11 -4 -5 4 -19 -1 -30 -11 -10 -9 -19 -14 -19 -10 0 12
-54 -28 -98 -73 -24 -24 -54 -65 -67 -91 -29 -57 -56 -168 -43 -176 5 -4 5
-10 0 -17 -5 -7 -8 -19 -7 -27 2 -8 6 -35 10 -60 4 -25 10 -47 13 -50 4 -3 9
-14 10 -25 5 -26 41 -85 53 -85 5 0 9 -6 9 -13 0 -24 90 -95 113 -89 4 1 7 -2
7 -7 0 -9 41 -27 85 -39 50 -13 181 -7 230 12 63 24 145 77 145 94 0 6 7 12
16 12 8 0 13 4 10 9 -3 5 1 12 10 15 8 3 13 10 10 15 -3 5 1 11 9 15 8 3 15
12 15 21 0 8 5 15 12 15 6 0 8 3 5 7 -4 3 -2 12 4 20 6 7 8 13 4 13 -4 0 -2 7
5 15 7 8 10 24 7 35 -3 11 -2 18 3 15 4 -3 10 1 12 8 5 17 2 127 -5 157 -13
59 -20 80 -27 80 -4 0 -10 12 -13 28 -3 15 -17 39 -31 54 -15 15 -26 33 -26
39 0 7 -3 9 -7 6 -3 -4 -12 2 -20 13 -8 11 -21 20 -29 20 -8 0 -14 4 -14 9 0
12 -100 58 -141 65 -50 9 -100 12 -137 8z m181 -62 c22 -6 36 -14 33 -17 -3
-3 7 -13 23 -22 62 -35 90 -69 129 -153 30 -66 41 -143 27 -206 -3 -12 -7 -30
-9 -41 -17 -74 -130 -221 -171 -221 -8 0 -15 -4 -15 -8 0 -17 -87 -37 -160
-36 -63 0 -83 5 -126 28 -82 45 -155 122 -169 179 -4 15 -10 27 -14 27 -4 0
-8 6 -9 13 0 6 -4 40 -7 75 -4 39 -2 83 6 115 7 29 11 54 10 56 -2 2 3 7 10
12 10 6 10 11 -1 23 -11 14 -11 16 2 11 10 -4 25 10 47 44 18 28 41 53 52 56
10 4 19 10 19 14 0 12 73 50 116 60 46 12 153 7 207 -9z"/>
<path d="M3644 7763 c-22 -16 -47 -32 -56 -38 -63 -41 -88 -62 -88 -74 0 -8
-3 -11 -6 -8 -10 10 -65 -33 -58 -45 4 -6 2 -8 -3 -5 -10 7 -71 -38 -185 -135
-14 -13 -36 -30 -48 -38 -12 -8 -39 -31 -59 -50 -20 -19 -55 -50 -79 -68 -23
-19 -39 -39 -36 -44 4 -6 3 -8 -3 -5 -8 5 -83 -55 -83 -66 0 -14 34 -115 42
-124 6 -7 8 -13 5 -13 -4 0 6 -24 21 -52 14 -29 27 -55 28 -58 7 -32 87 -193
104 -210 3 -3 12 -18 20 -35 15 -31 69 -116 79 -125 3 -3 12 -17 19 -31 7 -14
29 -42 48 -63 19 -20 34 -39 34 -41 0 -2 10 -15 23 -28 12 -13 36 -40 52 -59
163 -192 195 -224 415 -408 29 -25 58 -50 64 -55 6 -6 27 -22 46 -35 41 -29
58 -43 109 -87 20 -18 39 -33 43 -33 5 0 29 -15 55 -33 27 -19 64 -41 83 -51
19 -9 42 -20 50 -25 58 -32 81 -41 90 -36 6 3 10 2 10 -2 0 -5 15 -14 33 -22
42 -17 178 -61 187 -61 15 0 34 75 54 210 2 14 7 35 36 140 5 19 16 64 24 100
8 36 27 114 42 175 14 60 28 120 30 132 2 12 9 34 14 48 7 17 6 25 -1 25 -8 0
-8 4 0 13 13 17 22 82 14 103 -3 8 -12 13 -19 10 -8 -3 -14 -2 -14 2 0 12
-110 43 -122 36 -6 -4 -8 -3 -5 3 8 12 -88 47 -104 37 -8 -4 -9 -3 -5 4 4 7 0
12 -10 12 -10 0 -25 6 -33 14 -9 8 -23 16 -31 18 -8 2 -21 9 -28 16 -7 6 -22
12 -33 12 -11 0 -17 5 -14 10 3 6 1 10 -5 10 -6 0 -16 4 -23 10 -7 5 -46 36
-88 69 -71 56 -129 115 -209 212 -19 23 -43 51 -52 61 -10 10 -15 18 -12 18 3
0 -2 7 -10 16 -19 19 -86 131 -86 145 0 5 -5 9 -12 9 -6 0 -8 3 -5 6 4 4 0 19
-7 33 -32 60 -57 118 -60 134 -1 9 -5 20 -9 23 -4 4 -7 13 -7 21 0 7 -9 32
-19 56 -20 45 -82 267 -85 304 -3 41 -20 45 -62 16z"/>
<path d="M5915 6963 c-11 -3 -26 -10 -33 -16 -7 -5 -15 -7 -19 -3 -3 3 -15 -1
-25 -11 -10 -9 -30 -18 -45 -19 -14 -2 -29 -7 -32 -11 -3 -4 -15 -9 -25 -11
-11 -2 -31 -11 -45 -20 -14 -9 -27 -16 -28 -14 -6 6 -63 -9 -63 -16 0 -4 -14
-8 -32 -9 -17 -1 -34 -6 -37 -10 -3 -5 -14 -9 -24 -11 -35 -6 -141 -42 -154
-53 -7 -6 -13 -8 -13 -4 0 4 -7 2 -15 -5 -8 -7 -15 -10 -15 -8 0 3 -39 -9 -87
-26 -79 -29 -88 -34 -87 -56 2 -30 12 -95 20 -130 8 -31 13 -382 6 -394 -2 -4
-6 -41 -7 -81 -2 -41 -6 -82 -9 -92 -2 -10 -8 -42 -11 -72 -4 -30 -9 -63 -12
-75 -3 -12 -6 -32 -8 -46 -1 -14 -6 -33 -10 -42 -4 -10 -5 -24 -2 -32 3 -7 0
-19 -6 -25 -6 -6 -7 -11 -3 -11 5 0 3 -7 -4 -15 -7 -9 -10 -18 -7 -21 3 -3 -1
-23 -8 -45 -8 -21 -12 -39 -8 -39 3 0 1 -6 -5 -12 -5 -7 -12 -29 -15 -48 -13
-84 -41 -156 -60 -157 -129 -7 -260 -66 -338 -150 -47 -53 -105 -151 -115
-197 -15 -65 -19 -91 -23 -141 -1 -6 -11 -11 -23 -11 -43 -1 -162 -16 -213
-28 -11 -2 -33 -5 -48 -5 -16 -1 -26 -5 -22 -10 3 -6 -3 -9 -14 -8 -13 1 -33
23 -57 65 -21 35 -49 77 -63 92 -14 16 -34 39 -43 51 -27 35 -109 99 -119 93
-5 -3 -9 0 -9 6 0 12 -61 41 -72 34 -5 -3 -8 0 -8 6 0 11 -72 45 -118 56 -40
9 -170 14 -187 8 -20 -8 -19 -26 6 -68 11 -19 22 -47 25 -62 3 -16 9 -33 13
-39 7 -10 28 -75 37 -119 18 -81 26 -131 30 -196 4 -49 11 -81 22 -93 13 -15
14 -18 2 -15 -10 2 -16 -7 -18 -29 -3 -25 -16 -43 -59 -80 -76 -66 -220 -210
-252 -253 -14 -19 -31 -41 -38 -48 -27 -28 -142 -188 -141 -196 0 -5 -7 -13
-16 -18 -9 -5 -16 -18 -16 -28 0 -11 -4 -20 -9 -20 -11 0 -77 -111 -73 -122 1
-5 -2 -8 -7 -8 -9 0 -37 -60 -33 -72 1 -5 -1 -8 -6 -8 -4 0 -12 -12 -19 -27
-23 -54 -36 -88 -37 -98 -1 -10 -116 -15 -116 -4 0 3 -10 5 -22 6 -13 0 -54 3
-93 7 -38 4 -97 8 -130 9 -33 1 -62 5 -65 9 -10 13 -33 -10 -36 -34 -1 -12 -3
-23 -4 -23 -1 0 -3 -15 -6 -33 -3 -25 -1 -31 9 -26 9 6 9 4 1 -7 -17 -21 -19
-283 -2 -273 10 6 11 5 1 -8 -7 -8 -10 -18 -6 -21 3 -4 7 -21 9 -39 3 -32 11
-73 14 -73 1 0 3 -7 5 -15 2 -8 6 -26 9 -40 4 -22 13 -49 32 -102 4 -10 10
-18 15 -18 5 0 9 -6 9 -13 0 -19 24 -67 33 -67 5 0 6 -4 3 -9 -3 -5 1 -14 9
-21 8 -7 15 -18 15 -25 0 -6 8 -21 18 -33 9 -12 31 -44 47 -71 18 -30 35 -49
43 -46 7 3 10 0 6 -6 -3 -6 4 -21 17 -35 17 -18 25 -21 30 -12 5 7 7 0 5 -17
-2 -17 -9 -30 -17 -30 -29 -1 -119 -29 -119 -38 0 -5 -7 -7 -15 -3 -8 3 -15 2
-15 -2 0 -4 -19 -16 -43 -27 -59 -28 -118 -71 -109 -80 4 -5 2 -5 -5 -1 -6 3
-28 -8 -48 -25 -28 -25 -33 -34 -23 -41 10 -7 8 -8 -4 -4 -17 5 -68 -41 -107
-96 -8 -13 -26 -34 -38 -48 -21 -23 -28 -41 -24 -63 1 -5 -3 -6 -9 -2 -9 5
-12 -1 -9 -21 0 -4 -3 -10 -8 -13 -10 -7 -45 -91 -38 -91 2 0 0 -11 -5 -24 -5
-15 -5 -27 3 -35 8 -8 8 -11 -1 -11 -12 0 -17 -61 -6 -73 4 -4 8 -23 10 -43 2
-21 9 -41 16 -46 7 -4 9 -8 5 -8 -4 0 -3 -6 3 -12 38 -46 50 -62 50 -70 0 -4
7 -8 15 -8 8 0 15 -7 15 -15 0 -13 40 -42 48 -36 2 2 7 -1 10 -5 4 -4 0 -3 -8
1 -13 8 -13 7 0 -11 8 -10 24 -26 35 -34 11 -8 30 -25 42 -38 12 -13 30 -25
40 -27 10 -2 18 -4 18 -5 0 -2 35 -4 79 -5 54 -1 109 5 176 21 92 22 211 69
218 86 2 4 10 8 18 8 8 0 14 3 14 8 0 4 15 13 33 21 26 12 165 143 202 192 36
47 76 112 101 166 16 34 32 62 35 62 3 1 23 -15 45 -34 21 -19 42 -35 46 -35
3 0 30 -19 60 -43 29 -23 79 -60 112 -81 63 -43 62 -43 70 -98 3 -21 13 -77
22 -125 9 -49 17 -97 19 -108 2 -11 4 -22 6 -25 1 -3 3 -9 4 -15 10 -64 64
-211 84 -229 17 -15 56 -16 79 -2 7 4 12 3 12 -2 0 -5 59 -10 130 -11 l130 -2
10 26 c5 14 12 43 15 63 2 20 7 48 10 62 5 25 17 151 16 182 0 18 25 32 33 19
3 -4 40 -9 83 -10 43 -1 94 -4 113 -6 51 -7 499 -27 548 -25 6 0 18 0 25 1 6
0 36 -1 65 -4 29 -2 55 1 58 5 3 5 11 5 17 1 6 -4 59 -7 117 -7 l105 -1 1 -90
c0 -50 4 -97 9 -104 5 -9 4 -12 -3 -7 -8 4 -10 -4 -6 -26 3 -18 5 -61 4 -95
l-1 -63 53 -1 c69 -2 93 -5 106 -13 6 -3 13 -2 17 4 4 6 12 7 24 1 10 -6 23
-6 31 -1 8 5 19 6 24 3 9 -6 25 -7 86 -4 18 1 52 59 91 156 5 11 15 37 23 59
9 21 14 42 11 46 -3 5 -1 11 5 15 5 3 10 14 10 23 0 9 6 28 13 42 7 14 12 40
12 58 0 17 3 32 8 32 4 0 7 9 7 20 0 11 8 23 18 26 49 16 136 57 144 68 4 6 8
8 8 4 0 -17 222 131 261 174 9 10 19 18 21 18 9 0 158 145 158 154 0 4 12 17
26 28 14 11 23 27 20 34 -3 8 -2 13 2 13 20 -3 32 2 32 15 0 8 3 16 8 18 18 8
113 168 106 179 -4 7 -3 9 3 6 9 -6 80 122 88 157 1 6 9 27 18 46 8 19 13 38
11 42 -3 5 -1 8 4 8 7 0 14 21 37 110 1 3 4 12 8 20 14 35 27 101 22 110 -3 6
-2 10 3 10 5 0 9 6 10 13 1 6 4 34 8 61 5 35 3 51 -7 57 -11 7 -11 9 2 9 15 0
20 47 21 200 0 65 15 88 71 105 69 21 98 19 127 -8 28 -25 31 -32 35 -104 3
-51 -13 -93 -37 -93 -13 0 -100 -92 -93 -98 2 -3 -2 -14 -10 -26 -20 -28 -19
-100 1 -117 22 -18 45 -20 63 -6 12 9 13 9 7 0 -5 -9 -2 -11 8 -7 9 3 13 10
10 15 -3 5 0 9 7 9 26 0 68 63 80 119 18 87 25 106 40 102 8 -2 20 -4 27 -4 6
0 12 -6 12 -14 0 -7 5 -13 10 -13 6 0 10 -7 10 -15 0 -8 4 -15 9 -15 13 0 24
-64 27 -155 1 -44 2 -90 3 -102 1 -12 7 -20 14 -19 25 3 39 19 34 37 -3 11 -1
19 5 19 5 0 6 6 1 13 -12 19 -12 37 -1 37 7 0 6 5 -1 14 -8 10 -9 16 -1 21 6
3 7 11 3 17 -3 7 -8 31 -10 55 -5 66 -40 125 -93 154 -26 14 -31 16 -54 18 -9
1 -14 14 -15 34 -3 76 -16 127 -32 127 -5 0 -9 6 -9 13 0 8 -17 21 -37 30 -42
18 -123 30 -123 18 0 -4 -20 -12 -45 -18 l-45 -10 -6 32 c-3 18 -7 46 -9 62
-5 45 -25 116 -36 130 -6 7 -8 17 -4 23 3 5 1 10 -4 10 -6 0 -10 3 -10 8 3 19
-2 33 -11 27 -6 -3 -7 1 -4 10 4 8 -1 26 -10 40 -9 14 -14 25 -10 25 4 0 1 6
-5 14 -7 8 -14 25 -16 37 -3 13 -13 30 -22 37 -10 7 -18 18 -18 25 -1 24 -79
157 -97 165 -5 2 -8 10 -8 17 0 7 -3 15 -7 17 -5 2 -28 29 -52 61 -85 115
-186 221 -201 212 -6 -4 -9 -2 -8 3 5 16 -62 74 -78 68 -9 -3 -12 -2 -9 5 4 6
-1 17 -11 25 -50 39 -242 164 -252 164 -7 0 -12 5 -12 11 0 5 -4 7 -10 4 -5
-3 -10 -2 -10 3 0 12 -298 152 -324 152 -8 0 -27 7 -43 15 -15 8 -50 20 -77
27 -50 13 -73 41 -54 65 8 10 12 100 6 148 -3 19 3 20 127 22 315 3 311 3 318
38 2 11 7 27 10 35 11 29 30 95 32 110 1 8 7 28 14 44 6 16 9 31 6 34 -2 3 -1
10 4 16 5 6 12 31 16 56 4 24 8 47 10 51 5 7 18 79 30 169 3 25 8 56 10 70 7
50 16 126 20 183 4 62 16 80 64 92 38 10 111 63 180 132 35 34 61 63 57 63 -4
0 4 15 17 33 66 88 84 249 38 332 -28 50 -72 90 -136 123 -43 22 -62 26 -143
25 -50 0 -90 2 -88 4 2 2 -1 25 -6 51 -9 52 -20 120 -21 140 0 6 -4 12 -9 12
-5 0 -7 4 -4 9 5 7 -16 99 -32 141 -8 22 -9 28 -11 45 -1 15 -33 18 -76 8z
m50 -125 c10 -40 18 -77 17 -81 -1 -4 5 -10 14 -14 10 -4 12 -8 5 -12 -7 -5
-8 -18 -1 -42 6 -18 12 -50 15 -69 3 -19 7 -45 9 -57 4 -16 0 -23 -12 -25 -33
-2 -37 -4 -51 -12 -11 -7 -11 -4 2 13 8 13 14 28 11 35 -2 6 -6 27 -8 46 -10
81 -30 129 -53 129 -38 1 -52 5 -48 11 3 4 -4 15 -15 25 -19 17 -22 17 -90 -5
-75 -24 -89 -35 -71 -53 9 -9 16 -9 30 0 10 6 38 15 61 18 35 5 45 3 56 -14 8
-11 26 -21 41 -23 27 -3 35 -20 34 -67 -1 -12 2 -28 6 -34 4 -6 8 -33 10 -59
2 -39 -1 -48 -17 -53 -11 -4 -20 -11 -20 -17 0 -6 -3 -8 -6 -5 -4 4 -20 -4
-35 -16 -16 -12 -46 -35 -67 -52 -22 -16 -50 -45 -63 -64 -13 -19 -30 -40 -37
-47 -23 -23 -70 -135 -67 -160 1 -13 -2 -24 -7 -24 -6 0 -8 -7 -5 -15 8 -19
-10 -29 -58 -31 -43 -2 -91 -11 -115 -21 -8 -3 -23 -8 -33 -9 -23 -5 -88 -46
-109 -71 -21 -23 -47 -84 -45 -104 6 -35 31 -80 43 -75 7 3 11 0 8 -7 -6 -16
60 -52 77 -42 7 5 10 4 5 -3 -8 -13 5 -22 41 -27 16 -3 46 -9 68 -14 28 -7 43
-7 54 2 12 10 13 9 6 -2 -6 -11 -3 -13 13 -9 12 4 22 2 22 -4 0 -5 5 -6 11 -2
6 3 38 8 71 9 38 2 64 8 69 16 7 12 9 12 9 0 0 -10 3 -11 13 -2 8 6 17 8 20 5
4 -4 18 1 32 10 14 9 25 14 25 10 0 -4 7 -1 15 6 8 7 15 9 15 4 0 -4 11 3 25
16 14 13 25 20 25 15 0 -5 6 -2 13 7 6 9 34 19 60 22 l48 5 -6 -77 c-3 -42 -7
-90 -10 -107 -10 -75 -15 -113 -21 -155 -3 -25 -8 -52 -11 -60 -6 -16 -14 -70
-16 -107 -1 -13 -4 -23 -7 -23 -4 0 -7 -6 -7 -12 -1 -22 -25 -111 -37 -140 -4
-9 -5 -22 -1 -28 3 -5 2 -10 -3 -10 -5 0 -13 -17 -18 -37 -5 -21 -13 -36 -18
-35 -5 2 -13 -2 -17 -10 -6 -9 -9 -9 -9 -1 0 14 -60 14 -78 0 -8 -7 -16 -7
-20 -1 -8 10 -42 15 -42 5 0 -3 -19 -5 -42 -4 -94 6 -148 6 -154 1 -14 -14
-56 22 -78 68 -14 28 -47 74 -73 101 -52 53 -113 99 -113 86 0 -4 -4 -3 -8 2
-7 10 -60 38 -74 39 -4 1 -13 7 -20 15 -10 10 -10 12 0 7 7 -4 12 -1 13 8 2
23 3 27 23 71 10 22 19 50 19 62 1 13 5 23 8 23 3 0 6 10 6 23 0 12 7 39 16
60 21 48 26 142 9 159 -17 17 -32 -1 -38 -48 -7 -59 -9 -68 -16 -80 -4 -6 -10
-25 -13 -42 -3 -17 -10 -43 -15 -57 -6 -15 -8 -31 -4 -36 3 -5 0 -9 -5 -9 -6
0 -11 -4 -11 -9 0 -5 -5 -22 -12 -38 -6 -15 -12 -30 -13 -33 -11 -46 -18 -60
-30 -60 -19 0 -28 18 -19 38 4 9 8 22 10 27 20 79 36 138 39 152 3 10 11 45
20 78 8 33 17 74 20 90 3 17 8 37 10 45 3 8 7 31 9 50 5 35 11 71 21 120 3 14
7 61 10 105 3 44 7 94 10 110 6 41 5 342 -1 385 -3 19 -7 49 -9 65 -13 80 -13
79 33 89 23 5 42 13 42 18 0 5 4 7 9 4 5 -3 26 1 47 10 21 9 45 17 53 19 9 2
33 11 53 19 21 9 40 16 43 17 29 3 411 142 423 153 3 3 13 6 21 6 12 0 22 -20
36 -72z m-355 -837 c0 -25 20 -71 32 -71 4 0 8 -6 8 -12 0 -24 80 -85 140
-107 33 -12 60 -24 60 -26 0 -5 -110 -38 -127 -38 -7 0 -13 -3 -13 -7 0 -4
-12 -5 -26 -2 -20 4 -25 2 -19 -8 6 -10 4 -11 -6 -4 -22 14 -53 11 -66 -6 -6
-8 -15 -12 -19 -7 -4 4 -2 7 4 7 7 0 12 3 12 8 0 4 -17 8 -37 9 -142 7 -263
72 -263 141 0 36 44 83 85 90 11 2 22 7 25 12 7 11 109 34 164 38 40 2 46 0
46 -17z m157 -2707 c-3 -3 -12 -4 -19 -1 -8 3 -5 6 6 6 11 1 17 -2 13 -5z
m-477 -134 c0 -5 -2 -10 -4 -10 -3 0 -8 5 -11 10 -3 6 -1 10 4 10 6 0 11 -4
11 -10z m580 -12 c0 -8 -99 -15 -112 -7 -6 4 -3 8 7 10 31 6 105 4 105 -3z
m1256 -160 c-2 -18 -10 -48 -20 -65 -9 -18 -13 -33 -9 -33 3 0 -9 -13 -27 -30
-18 -16 -34 -30 -35 -30 0 0 0 12 0 28 1 37 15 82 26 82 5 0 9 4 9 10 0 7 48
66 57 69 1 1 1 -14 -1 -31z m-1796 -36 c0 -5 -7 -9 -15 -9 -8 0 -15 4 -15 9 0
4 7 8 15 8 8 0 15 -4 15 -8z m3 -99 c-7 -2 -19 -2 -25 0 -7 3 -2 5 12 5 14 0
19 -2 13 -5z m-2486 -397 c26 -22 30 -41 8 -32 -8 3 -15 2 -15 -2 0 -4 -12 -8
-27 -9 -67 -6 -84 -10 -95 -21 -7 -7 -17 -12 -24 -12 -19 0 -166 -87 -204
-121 -19 -17 -34 -36 -32 -41 1 -5 -2 -7 -7 -3 -6 3 -18 -3 -28 -13 -62 -65
-93 -101 -93 -107 0 -3 -11 -21 -24 -38 -13 -18 -27 -42 -30 -54 -13 -41 -19
-68 -21 -96 -1 -15 -5 -30 -8 -33 -4 -4 -3 -12 1 -18 7 -12 9 -18 11 -41 2
-22 40 -57 53 -49 6 4 9 3 6 -2 -8 -13 15 -31 35 -28 9 1 17 -1 17 -5 0 -19
159 -19 171 0 5 8 9 9 9 2 0 -13 70 4 81 20 3 5 9 8 13 7 13 -4 103 39 116 55
7 8 16 13 20 10 4 -2 16 5 28 15 12 11 24 20 27 20 3 0 16 10 29 23 13 12 36
34 52 48 62 56 127 145 117 163 -3 6 -3 8 2 4 11 -10 48 61 41 78 -3 8 -1 14
5 14 6 0 7 5 4 10 -11 17 10 11 33 -10 26 -24 26 -26 10 -71 -53 -153 -219
-326 -398 -416 -19 -10 -37 -21 -40 -24 -3 -4 -21 -10 -40 -14 -19 -4 -41 -12
-47 -17 -7 -6 -13 -8 -13 -5 0 3 -15 1 -32 -5 -42 -13 -167 -18 -173 -7 -3 4
-11 6 -18 3 -18 -6 -87 23 -115 49 -39 36 -61 83 -66 143 -2 17 -7 37 -11 44
-6 9 -4 11 5 5 9 -6 12 1 8 28 -2 20 -2 34 1 32 2 -3 13 21 24 52 11 32 31 75
45 95 14 22 21 42 16 50 -4 7 -4 10 0 6 8 -7 46 21 46 34 0 7 76 85 126 128
69 60 254 164 254 143 0 -4 5 -2 12 5 7 7 22 12 34 12 13 0 25 4 28 8 9 15 51
8 73 -12z m124 -128 c60 -57 89 -98 68 -98 -7 0 -10 -3 -6 -6 3 -3 -1 -23 -8
-45 -8 -21 -12 -39 -9 -39 3 0 -2 -7 -11 -16 -9 -9 -14 -23 -11 -31 3 -8 2
-12 -3 -9 -5 3 -16 -5 -25 -19 -9 -13 -25 -33 -37 -44 -12 -11 -18 -24 -14
-30 3 -7 3 -11 -2 -10 -21 4 -32 -3 -38 -21 -3 -11 -13 -20 -20 -20 -8 0 -18
-6 -22 -13 -10 -16 -110 -87 -122 -87 -5 0 -14 -6 -20 -14 -6 -7 -32 -19 -56
-26 -25 -7 -45 -17 -45 -22 0 -5 -6 -8 -12 -5 -7 2 -33 -1 -58 -8 -63 -16
-170 -6 -170 16 0 5 -7 9 -15 9 -8 0 -14 3 -13 8 1 4 -4 20 -10 35 -7 16 -12
33 -12 38 0 6 -5 7 -11 4 -7 -5 -7 -2 0 11 5 11 13 33 17 49 12 49 25 79 53
119 11 17 17 34 14 39 -3 6 -1 7 5 3 7 -4 17 3 24 18 6 14 14 26 18 26 3 0 33
26 66 58 33 32 66 56 72 54 7 -2 12 0 12 5 0 8 76 57 90 58 3 0 14 6 25 12 23
12 81 32 115 38 12 2 25 7 28 10 3 3 24 5 46 5 36 0 49 -7 97 -52z m281 -259
c18 -15 18 -17 -1 -59 -11 -24 -18 -47 -15 -51 6 -10 -23 -19 -41 -13 -8 3
-17 15 -21 26 -3 11 -12 17 -19 14 -9 -3 -12 3 -10 17 4 35 9 52 18 58 5 3 9
12 10 20 2 8 6 20 11 27 8 14 9 13 68 -39z m2132 22 c-2 -3 -12 3 -22 13 -16
17 -16 18 5 5 12 -7 20 -15 17 -18z m-3083 -94 c-10 -9 -11 -8 -5 6 3 10 9 15
12 12 3 -3 0 -11 -7 -18z m825 -36 c-3 -5 8 -23 24 -41 36 -38 36 -46 7 -83
l-23 -27 -24 22 c-14 13 -28 22 -33 20 -5 -1 -6 2 -3 7 3 5 -1 14 -9 21 -14
11 -13 15 5 27 17 12 19 18 9 29 -10 12 -9 13 5 8 11 -4 16 -1 16 10 0 9 7 16
16 16 8 0 13 -4 10 -9z m-76 -131 c11 -11 20 -23 20 -27 0 -3 7 -14 15 -24 15
-15 13 -20 -17 -51 -45 -48 -80 -69 -96 -59 -8 5 -14 12 -14 17 0 5 -4 8 -9 7
-5 -2 -8 3 -6 10 1 6 -3 11 -10 10 -7 -2 -10 4 -7 12 4 8 2 15 -3 15 -5 0 -10
7 -10 15 0 8 5 15 11 15 6 0 29 18 51 40 22 21 43 39 48 40 4 0 16 -9 27 -20z
m-175 -120 c-6 -9 7 -14 27 -11 4 0 5 -5 2 -13 -3 -7 2 -21 11 -30 20 -20 13
-46 -15 -53 -11 -3 -20 -8 -20 -12 0 -7 -57 -34 -77 -37 -7 -1 -13 4 -13 11 0
8 -10 22 -22 32 -38 30 -33 49 19 75 27 13 54 29 61 36 16 14 36 16 27 2z
m-169 -101 c1 -5 2 -16 3 -25 0 -8 6 -12 11 -9 6 3 10 -3 10 -14 0 -12 6 -21
13 -22 6 0 -3 -7 -21 -15 -35 -15 -52 -12 -52 10 0 7 -12 25 -26 39 l-26 27
23 8 c57 22 62 22 65 1z m-328 -22 c32 -4 50 -14 77 -42 48 -51 33 -72 -29
-40 -15 8 -32 13 -36 10 -4 -3 -11 2 -14 11 -4 10 -2 13 7 9 6 -4 3 1 -7 9
-16 13 -22 13 -29 3 -6 -9 -7 -8 -4 3 2 8 -3 24 -12 34 -9 11 -11 17 -6 13 6
-3 30 -8 53 -10z m215 -28 c9 -17 21 -28 26 -25 12 8 8 -27 -4 -36 -21 -16
-52 -7 -78 24 -50 56 -50 63 -3 65 36 2 43 -2 59 -28z"/>
<path d="M5385 6656 c-57 -20 -60 -23 -59 -53 0 -18 -3 -33 -6 -33 -4 0 -13
-13 -20 -29 -6 -16 -18 -32 -27 -35 -12 -5 -13 -20 -7 -83 4 -43 7 -126 7
-185 1 -69 5 -108 11 -108 6 0 5 -4 -2 -8 -7 -5 -14 -23 -17 -40 -3 -29 -1
-32 22 -32 20 0 24 4 20 20 -3 10 0 21 7 23 7 2 11 48 12 143 2 158 -3 207
-20 197 -6 -4 -6 -1 1 9 7 8 10 18 7 21 -3 3 3 18 14 34 20 29 36 68 41 102 1
8 29 19 69 27 8 1 22 10 31 18 10 9 21 13 24 9 4 -3 7 -2 7 4 0 12 -24 24 -43
22 -7 -1 -39 -11 -72 -23z"/>
<path d="M5922 5675 c-16 -19 -16 -26 0 -36 9 -6 9 -9 1 -9 -6 0 -11 -8 -11
-17 1 -29 -12 -126 -19 -136 -4 -6 -1 -7 8 -2 8 5 5 -2 -6 -14 -15 -18 -16
-24 -6 -30 9 -6 9 -10 2 -12 -6 -2 -20 -55 -32 -116 -12 -62 -26 -113 -30
-113 -5 0 -18 -9 -29 -20 -11 -11 -20 -17 -20 -14 0 4 -7 1 -15 -6 -8 -7 -12
-16 -9 -21 3 -5 0 -9 -6 -9 -6 0 -8 -5 -4 -12 4 -6 3 -8 -4 -4 -6 3 -13 2 -17
-4 -6 -10 -115 -9 -115 1 0 3 -11 4 -24 2 -22 -5 -23 -8 -14 -29 9 -20 19 -24
57 -25 73 -2 85 -4 96 -11 17 -11 39 8 32 27 -4 9 -3 14 2 11 4 -3 17 4 27 15
11 12 37 34 59 49 32 22 41 35 44 61 6 58 7 64 15 77 4 6 5 12 2 12 -2 0 -1
13 4 29 5 19 4 33 -3 41 -9 10 -9 11 2 5 10 -6 13 -4 8 7 -3 9 -2 19 3 24 11
11 22 66 24 111 1 18 4 33 7 33 4 0 7 12 7 28 0 15 2 39 5 55 2 15 0 27 -4 27
-5 0 -8 3 -8 8 5 32 -8 40 -29 17z"/>
<path d="M2245 5701 c-3 -5 -2 -12 3 -15 5 -3 9 1 9 9 0 17 -3 19 -12 6z"/>
<path d="M2242 5640 c1 -16 5 -30 9 -30 3 0 6 14 7 30 0 17 -4 30 -9 30 -5 0
-8 -13 -7 -30z"/>
<path d="M2239 5599 c0 -2 -3 -26 -5 -54 -2 -27 -7 -70 -11 -95 -3 -25 -8 -54
-9 -65 -6 -43 -20 -88 -45 -143 -11 -24 -16 -48 -13 -54 4 -6 3 -8 -4 -4 -6 3
-13 -3 -17 -14 -3 -11 -11 -20 -16 -20 -5 0 -9 -5 -9 -11 0 -7 -17 -27 -37
-45 -21 -19 -47 -42 -57 -52 -11 -9 -16 -11 -12 -4 9 15 1 15 -27 0 -12 -6
-66 -12 -119 -13 -54 -1 -101 -5 -105 -10 -5 -4 -2 -5 5 -1 6 4 12 4 12 -1 0
-4 10 -9 23 -9 74 -4 145 -13 161 -20 15 -6 17 -4 11 7 -5 8 -1 7 12 -3 11
-10 25 -18 31 -18 15 0 116 -60 120 -71 2 -5 10 -15 17 -22 48 -48 76 -155 79
-304 1 -61 12 -79 18 -29 2 21 0 36 -7 36 -6 0 -6 3 2 8 10 6 22 78 26 152 1
14 4 27 7 30 3 3 16 29 30 58 13 29 37 66 52 83 15 16 28 33 28 37 0 9 71 47
83 44 4 -1 7 2 7 7 0 4 51 7 113 6 l112 -1 -60 13 c-33 8 -89 21 -124 29 -60
14 -107 41 -157 92 -13 12 -20 22 -17 22 3 0 0 6 -7 14 -6 8 -19 12 -28 9 -14
-4 -14 -3 -3 5 12 9 12 15 -1 44 -26 56 -38 128 -41 245 -1 62 -6 115 -10 119
-4 4 -7 5 -8 3z"/>
</g>
</svg>
